#!OML:ASF E:\CV Data\Top Level 1\Subject 1\Session 1\player.ASF
:FULLY-SPECIFIED
:DEGREES
1541
root 7.08599 17.844 -2.17333 14.4687 -26.5064 -2.17137
lowerback 4.37706 5.19611 0.971579
upperback -1.97584 7.10958 2.57291
thorax -4.70181 3.53836 1.51485
lowerneck -14.2393 -7.51354 -13.0539
upperneck 11.283 -8.76391 8.58957
head 6.73272 -4.14778 3.95391
rclavicle -1.88845e-014 -3.18055e-015
rhumerus -7.51709 -23.241 -84.6194
rradius 22.5732
rwrist -24.4331
rhand -24.7808 -6.54952
rfingers 7.12502
rthumb 1.72326 -36.5223
lclavicle -1.88845e-014 -3.18055e-015
lhumerus -35.1781 -5.88572 88.5108
lradius 56.8939
lwrist 23.8087
lhand -23.6814 15.4466
lfingers 7.12502
lthumb 2.78505 45.4082
rfemur -5.16026 -12.0567 16.1765
rtibia 21.6073
rfoot -17.2728 -29.44
rtoes -3.93752
lfemur -25.8133 -1.36997 -20.4242
ltibia 19.2895
lfoot -5.43318 -11.3373
ltoes 10.3876
1542
root 7.08689 17.8432 -2.17924 14.498 -26.8458 -2.20607
lowerback 4.36612 5.17231 0.962006
upperback -1.9595 7.07598 2.56906
thorax -4.67829 3.52201 1.52098
lowerneck -14.3801 -7.37688 -12.9365
upperneck 11.3402 -8.57427 8.51084
head 6.74458 -4.05448 3.9297
rclavicle -4.47266e-014 0
rhumerus -7.99105 -23.2801 -84.3946
rradius 22.5296
rwrist -24.2468
rhand -24.7539 -6.48398
rfingers 7.12502
rthumb 1.74925 -36.4566
lclavicle -4.47266e-014 0
lhumerus -35.168 -5.85363 88.494
lradius 56.8601
lwrist 23.8014
lhand -23.7305 15.4903
lfingers 7.12502
lthumb 2.73759 45.4525
rfemur -5.13993 -11.9242 16.1725
rtibia 21.3819
rfoot -17.2866 -29.4088
rtoes -3.80761
lfemur -25.8627 -1.32279 -20.3789
ltibia 19.3871
lfoot -5.46074 -11.0504
ltoes 10.2545
1543
root 7.08765 17.8423 -2.18551 14.5229 -27.1784 -2.24528
lowerback 4.36516 5.14921 0.956311
upperback -1.93766 7.04368 2.56698
thorax -4.65447 3.50617 1.52603
lowerneck -14.5263 -7.24606 -12.8202
upperneck 11.3917 -8.39196 8.4344
head 6.75689 -3.96446 3.90537
rclavicle 1.01977e-013 5.40694e-014
rhumerus -8.44849 -23.3184 -84.173
rradius 22.4935
rwrist -24.151
rhand -24.7774 -6.48781
rfingers 7.12502
rthumb 1.72654 -36.4606
lclavicle 1.01977e-013 5.40694e-014
lhumerus -35.135 -5.8395 88.4846
lradius 56.815
lwrist 23.8
lhand -23.7724 15.55
lfingers 7.12502
lthumb 2.69715 45.5127
rfemur -5.11862 -11.7979 16.1725
rtibia 21.1673
rfoot -17.276 -29.3782
rtoes -3.73391
lfemur -25.9027 -1.27773 -20.329
ltibia 19.4808
lfoot -5.49157 -10.7653
ltoes 10.0944
1544
root 7.08826 17.8414 -2.19198 14.542 -27.5053 -2.28676
lowerback 4.3722 5.12419 0.95345
upperback -1.91419 7.00929 2.5686
thorax -4.63356 3.48921 1.53281
lowerneck -14.6613 -7.11633 -12.712
upperneck 11.4339 -8.21104 8.36005
head 6.76525 -3.87559 3.88312
rclavicle -3.18055e-014 -1.27222e-014
rhumerus -8.89674 -23.3654 -83.9493
rradius 22.4553
rwrist -24.0864
rhand -24.805 -6.5295
rfingers 7.12502
rthumb 1.69991 -36.5025
lclavicle -3.18055e-014 -1.27222e-014
lhumerus -35.1026 -5.83127 88.4841
lradius 56.7722
lwrist 23.7927
lhand -23.8156 15.5762
lfingers 7.12502
lthumb 2.65545 45.5394
rfemur -5.09336 -11.6762 16.1731
rtibia 20.9602
rfoot -17.2502 -29.3426
rtoes -3.69246
lfemur -25.9316 -1.23983 -20.2752
ltibia 19.5693
lfoot -5.52525 -10.4766
ltoes 9.90681
1545
root 7.0887 17.8405 -2.19854 14.5576 -27.8319 -2.32983
lowerback 4.38309 5.10019 0.949312
upperback -1.8907 6.97646 2.57466
thorax -4.61557 3.4731 1.54432
lowerneck -14.7816 -6.98788 -12.611
upperneck 11.4679 -8.03155 8.28265
head 6.76917 -3.78833 3.86119
rclavicle 6.95746e-014 1.82882e-014
rhumerus -9.33978 -23.4368 -83.7173
rradius 22.4122
rwrist -24.0021
rhand -24.8208 -6.57769
rfingers 7.12502
rthumb 1.68469 -36.5508
lclavicle 6.95746e-014 1.82882e-014
lhumerus -35.0754 -5.8281 88.4951
lradius 56.7352
lwrist 23.7709
lhand -23.8247 15.6474
lfingers 7.12502
lthumb 2.64668 45.6107
rfemur -5.06539 -11.5548 16.173
rtibia 20.7565
rfoot -17.2058 -29.3019
rtoes -3.68743
lfemur -25.9514 -1.20341 -20.2197
ltibia 19.6519
lfoot -5.55653 -10.1843
ltoes 9.70914
1546
root 7.08902 17.8398 -2.20511 14.5695 -28.1573 -2.36873
lowerback 4.3904 5.0785 0.948518
upperback -1.86425 6.94654 2.576
thorax -4.59153 3.45829 1.54941
lowerneck -14.89 -6.86242 -12.5104
upperneck 11.4894 -7.85767 8.20836
head 6.76815 -3.70379 3.83989
rclavicle 1.46504e-013 3.97569e-014
rhumerus -9.76719 -23.5679 -83.4863
rradius 22.3558
rwrist -23.8415
rhand -24.8168 -6.61062
rfingers 7.12502
rthumb 1.68853 -36.5837
lclavicle 1.46504e-013 3.97569e-014
lhumerus -35.0409 -5.8428 88.5098
lradius 56.6955
lwrist 23.7299
lhand -23.7953 15.76
lfingers 7.12502
lthumb 2.67507 45.723
rfemur -5.03702 -11.4351 16.1662
rtibia 20.5596
rfoot -17.1656 -29.2464
rtoes -3.66442
lfemur -25.963 -1.17277 -20.1666
ltibia 19.7243
lfoot -5.58282 -9.88984
ltoes 9.50687
